<?xml version="1.0" encoding="UTF-8"?>
<svg id="Layer_2" data-name="Layer 2" xmlns="http://www.w3.org/2000/svg" viewBox="0 0 92.94 32.51">
  <defs>
    <style>
      .cls-1 {
        fill: #219d96;
      }

      .cls-2 {
        fill: #3ac1ee;
      }

      .cls-3 {
        fill: #048b6e;
      }

      .cls-4 {
        fill: #a21f21;
      }

      .cls-5 {
        fill: #a01e5f;
      }

      .cls-6 {
        fill: #a92036;
      }

      .cls-7 {
        fill: #a02021;
      }

      .cls-8 {
        fill: #f59421;
      }

      .cls-9 {
        fill: #2f4d25;
      }

      .cls-10 {
        fill: #288d65;
      }

      .cls-11 {
        fill: #a8882e;
      }

      .cls-12 {
        fill: #ea2179;
      }

      .cls-13 {
        fill: #265750;
      }

      .cls-14 {
        fill: #4d4ea1;
      }

      .cls-15 {
        fill: #be1f24;
      }

      .cls-16 {
        fill: #22b573;
      }

      .cls-17 {
        fill: #261111;
      }

      .cls-18 {
        fill: #0b1535;
      }

      .cls-19 {
        fill: #0b0b0c;
      }

      .cls-20 {
        fill: #158250;
      }

      .cls-21 {
        fill: #e41e25;
      }

      .cls-22 {
        fill: #1c9e71;
      }

      .cls-23 {
        fill: #2f592b;
      }

      .cls-24 {
        fill: #2c7339;
      }

      .cls-25 {
        fill: #275750;
      }

      .cls-26 {
        fill: #ad1d63;
      }
    </style>
  </defs>
  <g id="Layer_1-2" data-name="Layer 1">
    <g>
      <g>
        <g>
          <path class="cls-19" d="M44.92,10.06c0,1.84-1.52,2.92-4.38,2.92h-5.75V2.33h5.45c2.8,0,4.17,1.14,4.17,2.78,0,1.02-.52,1.84-1.43,2.31,1.2,.43,1.95,1.34,1.95,2.63Zm-7.15-5.55v2.05h2.07c1,0,1.52-.35,1.52-1.03s-.52-1.02-1.52-1.02h-2.07Zm4.11,5.22c0-.73-.55-1.08-1.58-1.08h-2.53v2.16h2.53c1.03,0,1.58-.35,1.58-1.08Z"/>
          <path class="cls-19" d="M51.14,10.15h-1.64v2.83h-3.01V2.33h4.87c2.91,0,4.73,1.51,4.73,3.94,0,1.57-.76,2.72-2.08,3.36l2.3,3.35h-3.22l-1.93-2.83Zm.03-5.45h-1.67v3.12h1.67c1.25,0,1.87-.58,1.87-1.55s-.62-1.57-1.87-1.57Z"/>
          <path class="cls-19" d="M64.88,10.91h-4.5l-.84,2.07h-3.07l4.7-10.65h2.97l4.72,10.65h-3.13l-.84-2.07Zm-.88-2.22l-1.37-3.41-1.37,3.41h2.74Z"/>
          <path class="cls-19" d="M79.83,2.33V12.98h-2.48l-4.7-5.67v5.67h-2.95V2.33h2.48l4.7,5.67V2.33h2.95Z"/>
          <path class="cls-19" d="M81.96,2.33h5.04c3.53,0,5.95,2.05,5.95,5.32s-2.42,5.32-5.95,5.32h-5.04V2.33Zm4.91,8.25c1.81,0,3.03-1.08,3.03-2.92s-1.22-2.92-3.03-2.92h-1.9v5.84h1.9Z"/>
        </g>
        <g>
          <path class="cls-19" d="M45.57,30.09l-3.64-5.11c-.48,.07-.96,.11-1.48,.11h-4.36v5h-1.11V14.82h5.48c3.84,0,6.15,1.92,6.15,5.15,0,2.42-1.31,4.1-3.58,4.78l3.82,5.35h-1.27Zm-5.13-5.98c3.27,0,5.02-1.53,5.02-4.15s-1.75-4.15-5.02-4.15h-4.36v8.29h4.36Z"/>
          <path class="cls-19" d="M49.98,15.06c0-.48,.39-.89,.89-.89s.89,.39,.89,.87-.39,.89-.89,.89-.89-.39-.89-.87Zm.35,3.64h1.09v11.39h-1.09v-11.39Z"/>
          <path class="cls-19" d="M66.14,13.9V30.09h-1.07v-2.68c-.89,1.77-2.62,2.77-4.67,2.77-3.21,0-5.63-2.38-5.63-5.78s2.42-5.78,5.63-5.78c2.03,0,3.73,1,4.65,2.73v-7.44h1.09Zm-1.09,10.49c0-2.86-1.96-4.8-4.58-4.8s-4.58,1.94-4.58,4.8,1.96,4.8,4.58,4.8,4.58-1.94,4.58-4.8Z"/>
          <path class="cls-19" d="M80.37,24.66h-9.8c.11,2.71,2.09,4.54,4.82,4.54,1.44,0,2.77-.52,3.64-1.59l.63,.72c-1,1.22-2.57,1.85-4.3,1.85-3.45,0-5.87-2.4-5.87-5.78s2.33-5.78,5.45-5.78,5.43,2.36,5.43,5.74c0,.09-.02,.2-.02,.31Zm-9.77-.85h8.73c-.15-2.47-1.94-4.23-4.36-4.23s-4.19,1.75-4.36,4.23Z"/>
          <path class="cls-19" d="M89.16,18.61v1.07c-.09,0-.17-.02-.26-.02-2.53,0-4.04,1.68-4.04,4.49v5.93h-1.09v-11.39h1.05v2.49c.7-1.66,2.2-2.57,4.34-2.57Z"/>
          <path class="cls-19" d="M91.11,29.24c0-.52,.41-.92,.92-.92s.92,.39,.92,.92-.41,.94-.92,.94-.92-.41-.92-.94Z"/>
        </g>
      </g>
      <g>
        <path class="cls-8" d="M32.5,16.33c-.16,.28-.3,.57-.48,.84-.03,.05-.06,.1-.09,.14-.05,.08-.09,.16-.14,.23-.04,.04-.05,.1-.09,.14h0s-.05,.1-.1,.13c-.38,.53-.81,1.04-1.25,1.53-.02,.04-.06,.07-.09,.1-.04,.06-.08,.1-.14,.14-.46,.45-.93,.89-1.43,1.29-.21,.16-.41,.34-.64,.47-.11-.11-.13-.26-.15-.4-.15-1.15-.47-2.26-.85-3.35-.14-.41-.3-.81-.46-1.21,0,0,0-.01,0-.02,0,0,0-.01,0-.02,0-.03,0-.06,0-.1h0s0-.02,0-.03c.29-.74,.54-1.49,.77-2.24,.02-.04,.03-.08,.04-.12,.01-.04,.02-.08,.03-.11,0-.04,0-.08,0-.12,.16-.64,.28-1.29,.37-1.95,.02-.12,0-.25,.12-.34,.44,.29,.84,.62,1.24,.97,.08,.06,.15,.13,.23,.19,.03,.03,.06,.06,.1,.09,.42,.35,.8,.74,1.18,1.13,.67,.69,1.27,1.43,1.82,2.22,.09,.13,.11,.24,.02,.4Z"/>
        <path class="cls-12" d="M11.24,4.87c-.31,.42-.58,.86-.87,1.3-.04,.04-.08,.1-.1,.16-.07,.14-.15,.28-.24,.4-.05,.06-.07,.13-.09,.2-.3,.61-.61,1.23-.88,1.86,0,.01-.01,.02-.02,.04,0,0,0,0,0,0,0,.01-.01,.02-.02,.03-.01,.02-.02,.03-.04,.05-.01,.01-.02,.03-.04,.04-.79,.34-1.57,.7-2.32,1.14-.81,.47-1.57,1.01-2.31,1.57-.08,.06-.16,.15-.28,.14-.1-.3-.11-.62-.14-.93-.04-.54-.08-1.09-.07-1.64,.02-.71,.05-1.43,.19-2.13,0-.04,0-.08,.01-.12,.04-.14,.06-.28,.09-.42,.09-.45,.22-.89,.37-1.33,.04-.11,.1-.15,.19-.17,.42-.1,.83-.21,1.26-.26,.21-.03,.42-.1,.64-.09,.07-.02,.14-.02,.21-.04h0c.06,0,.12,0,.19,0h0c.81-.04,1.63-.15,2.44-.11,.6,.03,1.19,.1,1.78,.14,.02,0,.05,0,.07,0,0,0,0,0,0,0,0,0,0,0,0,0,0,0,0,0,0,0,0,0,0,.01,.01,.02,.03,.06-.02,.1-.05,.14Z"/>
        <path class="cls-2" d="M11.58,28.07h0s0,.04-.02,.05c-.5,.05-1.01,.1-1.51,.17-.22,.03-.45,.02-.67,.02-.46,0-.92,.08-1.38,.04-.44-.04-.89,0-1.33-.06-.52-.06-1.04-.11-1.55-.19-.35-.05-.47-.21-.55-.51-.17-.61-.3-1.24-.4-1.87-.12-.82-.16-1.63-.15-2.46,0-.51,.09-1.01,.1-1.52,0-.07,.03-.13,.05-.2,.13-.04,.2,.05,.29,.11,1.33,.94,2.77,1.67,4.32,2.17,.12,.04,.23,.08,.34,.14,.02,.02,.04,.04,.05,.06,.02,.02,.03,.04,.04,.06,.15,.21,.22,.46,.33,.69,.45,.91,.97,1.77,1.55,2.59,.06,.08,.12,.16,.16,.25,.01,.03,.03,.05,.04,.08,0,0,0,0,0,0,.03,.05,.06,.09,.1,.14,0,.01,.02,.02,.03,.03,.05,.06,.11,.11,.14,.19Z"/>
        <path class="cls-16" d="M21.53,28.42c-.16,.2-.32,.39-.48,.59-.03,.03-.06,.06-.09,.1-.37,.47-.8,.88-1.23,1.28-.78,.74-1.64,1.36-2.58,1.88-.11,.06-.23,.1-.33,.17-.17,.11-.31,.07-.46-.03-.93-.56-1.79-1.22-2.6-1.94-.56-.5-1.08-1.05-1.59-1.6-.07-.07-.13-.15-.19-.23-.14-.17-.28-.34-.42-.51,0-.01,0-.03,.01-.04,0,0,0,0,0,0,.28-.17,.6-.16,.9-.23,1.11-.24,2.19-.56,3.24-.98,.15-.06,.31-.11,.47-.06h0s.01,0,.02,0c0,0,.02,0,.02,0,0,0,0,0,.01,0,.81,.33,1.62,.67,2.46,.93,.12,.04,.24,.06,.35,.1,.04,.02,.08,.03,.12,.04,.04,.01,.08,.02,.12,.03,.04,0,.07,.01,.11,.01,.59,.16,1.19,.27,1.8,.37,.09,.01,.18,.03,.27,.06,.01,0,.02,.01,.03,.02,0,0,.02,.02,.02,.03Z"/>
        <path class="cls-16" d="M21.11,4.11c-.18,.16-.41,.1-.61,.15-.31,.08-.63,.13-.94,.19-.04,0-.08,0-.12,0h0s-.07,.01-.11,.02c-.04,.01-.08,.03-.12,.05-.66,.22-1.32,.42-1.96,.68-.38,.16-.75,.32-1.11,.51-.15,.07-.29,.12-.45,.1-.03,0-.05-.01-.08-.02,0,0,0,0,0,0-.15-.04-.29-.11-.44-.15-.03-.02-.05-.03-.08-.04h0s-.08-.04-.12-.05c0,0-.02,0-.02,0-.02,0-.04-.02-.06-.02,0,0-.02-.01-.03-.02h0s-.05-.02-.08-.02c-.04,0-.09,0-.13,0-.47-.11-.92-.28-1.39-.38-.04-.02-.08-.03-.12-.04-.04-.01-.08-.02-.13-.03,0,0,0,0,0,0-.05,0-.09,0-.14,0-.47-.1-.95-.18-1.43-.24-.04,0-.07-.02-.1-.05h-.02s0,0,0,0h-.01s0,0,0-.01c0-.01,.01-.02,.03-.03,.3-.38,.6-.76,.91-1.13,.48-.58,.99-1.13,1.54-1.64,.51-.47,1.03-.92,1.57-1.35,.02-.02,.05-.03,.08-.05,.11-.1,.26-.16,.36-.28,0,0,.01,0,.02-.01,0,0,0,0,.01,0,.03,0,.05,0,.07-.04,.31-.23,.31-.23,.64-.05,.47,.25,.93,.52,1.36,.85,.04,.04,.09,.06,.13,.1h0s.06,.06,.1,.08c.09,.03,.14,.11,.22,.15,.04,.02,.07,.06,.1,.08,.1,.08,.21,.16,.31,.24,.04,.02,.07,.06,.1,.09,.3,.28,.61,.54,.89,.83,.49,.5,.97,1.01,1.38,1.57Z"/>
        <path class="cls-2" d="M28.03,9.82c0,.44-.08,.89-.09,1.33,0,.05-.02,.09-.05,.13-.11,.04-.17-.05-.24-.1-1.06-.71-2.15-1.38-3.33-1.9-.17-.07-.34-.14-.51-.23-.02-.01-.04-.02-.05-.04-.04-.04-.07-.07-.1-.12,0,0,0,0,0,0-.09-.13-.12-.29-.18-.43-.55-1.42-1.27-2.76-2.17-3.98-.02-.02-.04-.05-.05-.08-.02-.05-.05-.09-.09-.13-.03-.05-.05-.09-.03-.15,.26-.05,.53-.08,.8-.1,.65-.05,1.29-.06,1.94-.03,.51,.02,1.03,.08,1.54,.16,.53,.09,1.05,.23,1.57,.35,.02,0,.04,.01,.07,.02,.43,.16,.44,.16,.55,.63,.14,.57,.22,1.16,.3,1.75,.05,.39,.06,.78,.1,1.17,.06,.58,.04,1.17,.03,1.75Z"/>
        <path class="cls-12" d="M28.23,24.86c-.03,.22-.02,.44-.03,.67-.02,.47-.07,.93-.14,1.4-.03,.2-.04,.41-.11,.61-.07,.13-.04,.32-.24,.37-.09,.04-.17,.1-.27,.09-.11,.05-.22,.05-.33,.09-.07,.01-.14,.07-.22,.05-.13,.03-.26,.03-.38,.08-.72,.18-1.47,.24-2.21,.29-.27,.02-.54,.02-.8,.03-.64,0-1.27-.06-1.9-.13-.02,0-.05,0-.07,0,0-.01,0-.02-.01-.03,.16-.33,.41-.61,.61-.92,.61-.96,1.11-1.97,1.53-3.02,.11-.29,.19-.59,.32-.87,0,0,0-.01,0-.02,0,0,0-.01,0-.02,.04-.06,.1-.1,.16-.12,1.23-.48,2.39-1.08,3.48-1.83,.04-.03,.08-.05,.12-.07,.06-.02,.12-.04,.16-.09,.04-.02,.07-.09,.13-.04,.11,.62,.16,1.25,.18,1.88,.02,.53,.09,1.06,.01,1.59Z"/>
        <path class="cls-8" d="M5.63,16.66s0,0,0,.01c0,0,0,.01,0,.02-.25,.55-.44,1.13-.67,1.69-.06,.09-.07,.2-.08,.3-.24,.79-.44,1.6-.57,2.42-.02,.13-.02,.28-.14,.38-.25-.11-.44-.31-.64-.48-1.33-1.09-2.42-2.38-3.26-3.88-.07-.13-.14-.25-.2-.39-.04-.1-.09-.2-.01-.3,.05-.05,.05-.13,.1-.18,.22-.31,.4-.63,.64-.93,.05-.06,.09-.12,.14-.19,.63-.88,1.36-1.67,2.14-2.42,.31-.3,.62-.59,.96-.84,.1,.12,.11,.27,.13,.41,.27,1.5,.79,2.91,1.47,4.27,0,0,0,0,0,.01,0,0,0,.01,0,.02,0,.03,0,.06,0,.09Z"/>
        <path class="cls-21" d="M12.41,8.1c-.39,.32-.78,.65-1.15,1-.6,.55-1.16,1.12-1.71,1.72-1.4,1.52-2.57,3.19-3.53,5.02-.1,.18-.18,.37-.27,.56-.03,.07-.04,.15-.12,.17,0,0-.02,0-.03,0-.16-.17-.23-.4-.32-.6-.3-.64-.55-1.3-.77-1.97-.15-.48-.28-.97-.38-1.47-.05-.22-.13-.44-.12-.68,0-.02,0-.04,.01-.05,.56-.44,1.12-.86,1.71-1.25,.75-.5,1.54-.93,2.36-1.3,.27-.12,.54-.26,.83-.34,.02-.02,.05-.04,.08-.05,.01,0,.03-.01,.04-.02,.01,0,.02,0,.03-.01h0c.07-.03,.15-.05,.21-.1,.5-.24,1.04-.37,1.57-.53,.46-.15,.94-.24,1.41-.33,.02,0,.04,0,.07,0h0s.07,0,.1,0h0s.07,.02,.08,.05c.03,.09-.05,.14-.11,.18Z"/>
        <path class="cls-24" d="M12.75,24.8h0s-.02,.02-.03,.04c-.64,0-1.26-.17-1.89-.28-.41-.07-.81-.2-1.21-.3-.14-.04-.29-.07-.41-.15-.04-.02-.07-.05-.11-.08-1.28-.41-2.5-.93-3.65-1.63-.41-.24-.8-.51-1.18-.79-.03-.02-.06-.05-.1-.05,0-.02-.01-.05-.02-.07,.1-.59,.2-1.18,.34-1.76,.09-.36,.18-.73,.31-1.08,.03-.09,.04-.19,.09-.28,.2-.55,.39-1.09,.63-1.62,.02-.03,.02-.07,.07-.09,0,0,.02,0,.03,0,.05,.02,.08,.06,.11,.11,.62,1.21,1.38,2.32,2.22,3.39,.02,.05,.05,.09,.09,.12,.31,.31,.57,.66,.86,.99,.01,.02,.02,.03,.04,.05,0,0,.01,.02,.02,.02,.01,.02,.03,.03,.04,.05,0,0,.01,.01,.02,.02,.02,.01,.03,.03,.05,.04,.13,.09,.21,.22,.32,.33,1.01,1.03,2.09,1.99,3.25,2.85,.04,.03,.18,.06,.11,.16Z"/>
        <path class="cls-24" d="M27.92,11.33c-.04,.26-.07,.51-.12,.77-.06,.34-.12,.68-.19,1.01-.04,.18-.08,.36-.13,.53-.05,.1-.05,.22-.09,.33-.18,.68-.4,1.35-.66,2-.04,.09-.04,.2-.13,.26-.01,0-.02,0-.03,0-.07,0-.08-.07-.1-.12-.62-1.39-1.4-2.69-2.34-3.89-.67-.86-1.42-1.64-2.2-2.4-.69-.67-1.45-1.26-2.23-1.84-.05-.04-.17-.06-.13-.16,0,0,0,0,0,0,0,0,0-.02,.02-.03,.11-.05,.23-.03,.34-.01,1.15,.21,2.26,.53,3.36,.93,.05,.02,.1,.04,.14,.07,.07,.04,.14,.08,.21,.11,0,0,0,0,0,0,0,0,0,0,0,0,.06,.04,.1,.1,.18,.12,.76,.29,1.48,.66,2.18,1.06,.65,.36,1.25,.79,1.87,1.2,0,.02,.02,.04,.03,.06Z"/>
        <path class="cls-21" d="M28.05,21.33s-.01,.04-.02,.06c-.04,0-.07,.04-.09,.07-.04,.04-.11,.04-.14,.1-.18,.11-.36,.23-.54,.34-.79,.52-1.62,.94-2.48,1.32-.2,.09-.4,.18-.62,.25-.06,.02-.11,.06-.16,.09-.01,0-.02,.01-.04,.02-.39,.21-.81,.33-1.23,.45-.49,.14-.98,.3-1.49,.38-.06,0-.12,.01-.18,.02-.01,0-.02,0-.03,0-.03,0-.07,0-.1,.02-.02,0-.05,0-.07,.01-.2,.04-.4,.09-.6,.13,0,0-.01,0-.02,0-.02,0-.04,0-.06,0-.02,0-.03,0-.05,0,0,0-.02-.01-.02-.02-.03-.05,.01-.08,.04-.12,0,0,0,0,.01-.01h0s.02-.02,.04-.03c.01,0,.03-.02,.04-.03,.03-.02,.05-.04,.07-.06,.02-.02,.04-.05,.06-.07,.43-.36,.85-.75,1.29-1.1,.04-.02,.07-.04,.11-.07,.1-.07,.17-.15,.25-.24,.03-.03,.05-.07,.08-.1,.1-.13,.21-.24,.34-.34,.03-.03,.07-.05,.1-.08,.09-.07,.18-.15,.24-.25,.03-.04,.05-.08,.07-.12,.38-.46,.78-.89,1.14-1.36,.97-1.27,1.8-2.62,2.44-4.09,.03-.06,.03-.15,.12-.16,.01,0,.02,0,.03,0,.14,.2,.22,.44,.3,.67,.2,.54,.39,1.08,.56,1.63,.2,.66,.34,1.34,.46,2.01,.04,.23,.08,.45,.12,.68Z"/>
        <path class="cls-3" d="M23.84,9.02s-.05,0-.07,0c-.04-.02-.07-.07-.12-.08-.05-.05-.12-.06-.18-.09-.47-.17-.93-.33-1.41-.48-.32-.09-.63-.19-.95-.26-.5-.12-1-.27-1.52-.28h-.01s-.08,0-.11-.01l-.08-.04s-.04-.02-.05-.03h0s0,0,0,0c-.03-.02-.05-.03-.08-.05-.77-.49-1.56-.95-2.39-1.34-.37-.17-.74-.39-1.16-.45,0,0,0,0-.01,0,0,0-.01,0-.02-.01-.03-.02-.06-.04-.07-.08,0-.02,0-.03,0-.05,.21,.06,.4-.02,.59-.11,.41-.2,.82-.41,1.25-.56,.36-.13,.71-.26,1.08-.37,.23-.07,.47-.13,.7-.22,.11-.04,.22-.04,.33-.09,.19,0,.35-.09,.54-.11,.35-.05,.69-.14,1.04-.17,.01,0,.02,0,.03,0,.02,.04,.04,.09,.06,.13,.02,.04,.06,.07,.08,.1,.32,.41,.6,.84,.87,1.27,.46,.74,.83,1.52,1.19,2.31,.11,.25,.21,.51,.3,.77,.04,.12,.1,.22,.2,.3Z"/>
        <path class="cls-17" d="M19.46,7.78s.07,.03,.11,.04c.28,.21,.55,.41,.83,.62,.79,.6,1.52,1.27,2.22,1.97,.44,.45,.87,.91,1.27,1.4,.63,.78,1.21,1.59,1.7,2.46,.3,.52,.56,1.05,.84,1.58,.07,.13,.07,.29,.18,.39,0,.03,0,.06,0,.1-.14,.2-.21,.44-.31,.66-.44,.92-.94,1.79-1.51,2.63-.47,.69-1,1.34-1.54,1.98-.11,.13-.23,.25-.34,.37-.12,.17-.29,.29-.42,.46-.12,.1-.23,.2-.32,.32-.17,.13-.29,.3-.46,.42-.42,.38-.86,.75-1.3,1.11-.06,.05-.12,.1-.18,.14h0s-.13,.05-.09,.14c.03,0,.06,0,.09,0,.03-.01,.05,0,.05,.03-.2,.16-.44,.1-.67,.14-.63,.13-1.27,.16-1.9,.23-.79,.08-1.58,.12-2.38,.09-.84-.03-1.68-.06-2.5-.21-.03-.01-.05-.03-.07-.05-.21-.16-.42-.32-.64-.49-.51-.4-1-.82-1.48-1.24-.44-.39-.85-.8-1.26-1.22-.12-.13-.24-.25-.36-.38-.02-.02-.03-.03-.05-.05h0s-.03-.03-.04-.05h0s-.03-.03-.04-.05c-.29-.34-.59-.68-.88-1.01-.02-.04-.06-.07-.09-.1-.21-.28-.43-.56-.64-.84-.47-.64-.89-1.3-1.28-1.99-.14-.24-.24-.49-.4-.72,0-.03,0-.06,0-.09,.23-.48,.47-.96,.73-1.43,.42-.74,.88-1.46,1.37-2.15,.49-.69,1.03-1.34,1.59-1.97,.54-.61,1.1-1.2,1.7-1.75,.43-.4,.86-.78,1.32-1.15,.06-.05,.14-.09,.19-.18-.06-.03-.13,0-.19-.02,.08-.17,.26-.1,.39-.15,.54-.08,1.08-.18,1.62-.21,1.06-.06,2.11-.2,3.17-.05,.52,.07,1.06,.07,1.58,.15,.11,.02,.21,.03,.31,.08h0s.06,.02,.08,.05Z"/>
        <path class="cls-14" d="M12.68,7.82c-.12,.06-.26,.02-.37,.09-.15,.07-.31,.08-.47,.11-.68,.14-1.33,.35-1.99,.56-.19,.06-.37,.13-.56,.2-.1,.02-.19,.14-.29,.01,.13-.37,.31-.71,.47-1.07,.13-.29,.29-.56,.42-.84,.05-.05,.06-.13,.1-.18,.08-.14,.16-.27,.24-.41,.05-.04,.06-.1,.09-.14,.28-.43,.54-.87,.85-1.28,.04-.05,.08-.12,.14-.15,.33-.03,.65,.08,.97,.12,.2,.02,.39,.08,.58,.11,.12,.03,.25,.06,.38,.08,.25,.02,.49,.12,.73,.17,.23,.05,.46,.13,.69,.2,.08,.03,.17,.04,.24,.08h0c.08,.05,.16,.05,.24,.09,.16,.02,.3,.12,.45,.15,.04,.03,.08,.07,.13,.1-.15,.21-.39,.29-.6,.41-.76,.43-1.48,.91-2.17,1.44-.08,.06-.18,.08-.27,.13Z"/>
        <path class="cls-6" d="M9,8.8c.1,.09,.19-.04,.29-.01-.1,.11-.24,.11-.37,.13,.01-.05,.02-.1,.08-.11Z"/>
        <path class="cls-26" d="M9.99,6.71c0,.08-.02,.14-.1,.18,0-.08,.03-.14,.1-.18Z"/>
        <path class="cls-5" d="M10.32,6.16c0,.07,0,.13-.09,.14,0-.06,.03-.12,.09-.14Z"/>
        <path class="cls-3" d="M12.75,24.8s.04,0,.05,0c.24,.09,.43,.26,.64,.4,.8,.55,1.64,1.02,2.5,1.46,.06,.03,.13,.06,.19,.07,.02,0,.04,.02,.06,.03,.02,.01,.03,.03,.05,.05,0,.02,0,.04,0,.06-.19-.05-.35-.01-.53,.07-.26,.12-.54,.21-.82,.3-.43,.14-.85,.3-1.29,.4-.39,.09-.77,.2-1.16,.27-.29,.05-.58,.12-.88,.16-.06-.05-.12-.1-.15-.17-.05-.09-.12-.16-.18-.24-.53-.69-.98-1.42-1.39-2.18-.24-.44-.46-.88-.65-1.34-.02-.05-.06-.09-.09-.14,.32,.14,.67,.21,1,.3,.4,.1,.8,.18,1.2,.27,.28,.06,.57,.06,.85,.15,.18,.06,.4,0,.59,.07Z"/>
        <path class="cls-14" d="M16.25,26.88s0-.03,0-.05c-.02-.01-.03-.03-.05-.04h0c0-.12,.11-.13,.19-.17,.99-.43,1.93-.95,2.83-1.54,.19-.12,.35-.31,.62-.38-.02,0-.06-.03-.04,0,0,.01,0,.02-.02,.02-.06,0-.14,.06-.15-.06,.22,0,.43-.04,.64-.08,.2-.13,.43-.11,.65-.17,.11-.03,.22-.04,.33-.07,.28-.02,.55-.12,.82-.19,.6-.16,1.21-.33,1.78-.58,.05-.02,.1-.02,.16-.02-.09,.44-.27,.85-.44,1.26-.3,.75-.67,1.48-1.08,2.18-.27,.45-.55,.89-.87,1.3-.03,.04-.06,.07-.1,.09-.29,.03-.56-.07-.84-.1-.32-.04-.63-.14-.94-.19-.12-.02-.23-.07-.35-.1-.1-.05-.22-.06-.33-.09-.35-.07-.69-.2-1.03-.31-.54-.18-1.06-.4-1.58-.62-.07-.03-.12-.1-.21-.09Z"/>
        <path class="cls-13" d="M13.24,5.04c-.14,.02-.26,0-.38-.08,.14-.02,.26,.01,.38,.08Z"/>
        <path class="cls-22" d="M19.53,4.4c-.09,.1-.21,.09-.33,.09,.1-.08,.21-.1,.33-.09Z"/>
        <path class="cls-10" d="M14.9,5.5c-.09,.02-.17-.03-.24-.08,.09-.02,.18-.02,.24,.08Z"/>
        <path class="cls-25" d="M15.14,5.59c-.1,.02-.17-.02-.24-.08,.09-.01,.18,0,.24,.08Z"/>
        <path class="cls-1" d="M21.28,4.35c-.06,0-.09-.04-.08-.1,.06,.01,.09,.04,.08,.1Z"/>
        <path class="cls-11" d="M4.9,18.37c.01,.11-.03,.2-.09,.28-.02-.11,0-.2,.09-.28Z"/>
        <path class="cls-23" d="M7.91,20.22c.06,0,.09,.04,.09,.1-.04-.02-.08-.05-.09-.1Z"/>
        <path class="cls-9" d="M8.93,21.38s.03,.03,.04,.05c-.02,0-.04-.02-.04-.05Z"/>
        <path class="cls-9" d="M8.88,21.33s.03,.03,.04,.05c-.02,0-.04-.02-.04-.05Z"/>
        <path class="cls-9" d="M8.97,21.43s.04,.02,.05,.05c-.02-.02-.03-.03-.05-.05Z"/>
        <path class="cls-20" d="M23.46,8.84c.08,0,.15,0,.19,.09-.07,0-.14-.03-.19-.09Z"/>
        <path class="cls-15" d="M21.25,24.34c-.06,.06-.13,.07-.21,.08-.26,.04-.52,.09-.78,.16-.01,0-.03-.02-.04-.02,.03-.02,.06-.06,.09-.06,.32-.03,.61-.16,.93-.16Z"/>
        <path class="cls-4" d="M22.48,22.44c.09-.2,.26-.32,.42-.46-.08,.21-.26,.33-.42,.46Z"/>
        <path class="cls-7" d="M21.7,23.18c.14-.16,.26-.33,.46-.42-.13,.16-.25,.34-.46,.42Z"/>
        <path class="cls-15" d="M20.22,24.43c.04-.08,.1-.12,.18-.14-.03,.09-.09,.14-.18,.14Z"/>
        <path class="cls-15" d="M20.13,24.57s-.09,0-.05-.05c.03-.05,.08-.09,.15-.09-.03,.05-.06,.09-.09,.14Z"/>
        <path class="cls-18" d="M12.68,7.82c.5-.4,1.03-.76,1.57-1.11,.48-.31,.98-.58,1.47-.87,.19-.01,.36,.09,.52,.16,.59,.25,1.17,.53,1.73,.85,.48,.28,.98,.54,1.42,.88-.26,0-.52-.04-.78-.08-.2-.03-.4-.05-.59-.06-.41,0-.81-.06-1.22-.09-.37-.02-.75-.03-1.13,.02-.25,.03-.5,.07-.76,.06-.44-.02-.87,.06-1.3,.13-.08,.01-.17,0-.25,.01-.06,0-.13-.01-.18,.02-.16,.09-.33,.08-.5,.08Z"/>
        <path class="cls-18" d="M19.46,7.78s-.06-.01-.08-.04c.03,0,.07,0,.08,.04Z"/>
        <path class="cls-18" d="M19.62,24.67c.05,.07,.13,.02,.19,.06-.22,.15-.43,.32-.65,.46-.38,.24-.76,.49-1.16,.7-.21,.11-.41,.23-.62,.34-.3,.16-.6,.32-.93,.43-.09,.03-.18,.08-.26,.14-.23,0-.4-.15-.59-.24-.65-.33-1.28-.68-1.88-1.1-.31-.21-.64-.39-.91-.65,.16-.03,.31,.03,.45,.06,.14,.02,.27,.03,.41,.03,.34,0,.67,.03,1.01,.09,.06,0,.12,0,.18,0,.49,0,.99,0,1.48,0,.35,0,.69-.03,1.03-.09,.11-.02,.22-.01,.32,0,.25,0,.5-.03,.75-.08,.17-.03,.35-.02,.53-.04,.22-.03,.44-.05,.65-.11Z"/>
        <path class="cls-18" d="M16.19,26.79s.03,.03,.05,.04c-.03,0-.04-.02-.05-.04Z"/>
      </g>
    </g>
  </g>
</svg>